- 
http://www.Speed.Cd 
       
http://www.Speed.Cd      fast  and The Hottest Private Tracker on the net

(((--Submit for invite!!--)))

Please Seed back to make the speed Faster!!!

------------------nfo--------------------------
-      Green Lantern 2011 PPVRIP IFLIX


Language : English
Format : AVI
Format/Info : Audio Video Interleave
Format profile : OpenDML
File size : 1.35 GiB
Duration : 1h 53mn
Overall bit rate : 1 696 Kbps

Video
ID : 0
Format : MPEG-4 Visual
Format profile : Simple@L3
Format settings, BVOP : No
Format settings, QPel : No
Format settings, GMC : No warppoints
Format settings, Matrix : Default (H.263)
Codec ID : XVID
Codec ID/Hint : XviD
Duration : 1h 53mn
Bit rate : 1 550 Kbps
Width : 720 pixels
Height : 480 pixels
Display aspect ratio : 1.500
Frame rate : 29.970 fps
Original frame rate : 29.000 fps
Standard : NTSC
Resolution : 24 bits
Colorimetry : 4:2:0
Scan type : Progressive
Bits/(Pixel*Frame) : 0.150
Stream size : 1.23 GiB (91%)
Writing library : XviD 1.2.1 (UTC 2008-12-04)

Audio
ID : 1
Format : MPEG Audio
Format version : Version 1
Format profile : Layer 3
Format_Settings_Mode : Joint stereo / MS Stereo
Codec ID : 55
Codec ID/Hint : MP3
Duration : 1h 53mn
Bit rate mode : Constant
Bit rate : 128 Kbps
Channel(s) : 2 channels
Sampling rate : 44.1 KHz
Resolution : 16 bits
Stream size : 104 MiB (8%)
Alignment : Aligned on interleaves
Interleave, duration : 26 ms (0.78 video frame)
Writing library : LAME3.98.2

Link: Link: : http://www.imdb.com/title/tt1133985/

Plot: A test pilot is granted a mystical green ring that bestows him with otherworldly powers, as well as membership into an intergalactic squadron tasked with keeping peace within the universe.

Cast

Ryan Reynolds ... Hal Jordan / Green Lantern
Melanie Hebert ... News Reporter (F-35 Crash)
Blake Lively ... Carol Ferris
Peter Sarsgaard ... Hector Hammond
Mark Strong ... Sinestro
Tim Robbins ... Hammond
Jay O. Sanders ... Carl Ferris
Taika Waititi ... Tom Kalmaku
Angela Bassett ... Doctor Waller
Mike Doyle ... Jack Jordan
Nick Jandl ... Jim Jordan
Dylan James ... Jason Jordan
Gattlin Griffith ... Hal
Jon Tenney ... Martin Jordan
Leanne Cochran ... Janice Jordan
Temuera Morrison ... Abin Sur
Jeff Wolfe ... Bob Banks
Lena Clark ... Senator's Assistant
Jenna Craig ... Carol 

Release notes...

Another quality release from IFLIX
More to come very soon!

Video source: Ours
Audio source: Ours

Greetings to all other groups out there. You all do awesome work and we greatly appreciate it.
IFLIX